<svg xmlns="http://www.w3.org/2000/svg" width="1024" height="1024" viewBox="0 0 1024 1024" role="img" aria-label="Stoker app icon (64px tier)">
  <!--
    Stoker app icon — 64px DETAIL TIER (rendered into icon_32x32@2x.png at 64px).
    32px tier + the 6-blade aperture. Still NO ticks (those start at the 128px tier).
  -->
  <defs>
    <linearGradient id="card64" x1="120" y1="100" x2="910" y2="930" gradientUnits="userSpaceOnUse">
      <stop offset="0" stop-color="#3C3E43"/>
      <stop offset="0.62" stop-color="#23252A"/>
      <stop offset="1" stop-color="#14141A"/>
    </linearGradient>
    <radialGradient id="coreGlow64" cx="50%" cy="50%" r="50%">
      <stop offset="0" stop-color="#FFB15E" stop-opacity="0.5"/>
      <stop offset="0.6" stop-color="#E36E43" stop-opacity="0.18"/>
      <stop offset="1" stop-color="#E36E43" stop-opacity="0"/>
    </radialGradient>
    <radialGradient id="ember64" cx="50%" cy="46%" r="52%">
      <stop offset="0" stop-color="#FFB15E"/>
      <stop offset="0.5" stop-color="#F07845"/>
      <stop offset="1" stop-color="#E15F32"/>
    </radialGradient>
  </defs>
  <path fill="url(#card64)" d="M1008.00 512.00 L1006.91 712.99 L1003.64 776.63 L998.14 822.08 L990.38 858.10 L980.27 887.90 L967.69 913.02 L952.46 934.36 L934.36 952.46 L913.02 967.69 L887.90 980.27 L858.10 990.38 L822.08 998.14 L776.63 1003.64 L712.99 1006.91 L512.00 1008.00 L311.01 1006.91 L247.37 1003.64 L201.92 998.14 L165.90 990.38 L136.10 980.27 L110.98 967.69 L89.64 952.46 L71.54 934.36 L56.31 913.02 L43.73 887.90 L33.62 858.10 L25.86 822.08 L20.36 776.63 L17.09 712.99 L16.00 512.00 L17.09 311.01 L20.36 247.37 L25.86 201.92 L33.62 165.90 L43.73 136.10 L56.31 110.98 L71.54 89.64 L89.64 71.54 L110.98 56.31 L136.10 43.73 L165.90 33.62 L201.92 25.86 L247.37 20.36 L311.01 17.09 L512.00 16.00 L712.99 17.09 L776.63 20.36 L822.08 25.86 L858.10 33.62 L887.90 43.73 L913.02 56.31 L934.36 71.54 L952.46 89.64 L967.69 110.98 L980.27 136.10 L990.38 165.90 L998.14 201.92 L1003.64 247.37 L1006.91 311.01 L1008.00 512.00 Z"/>
  <circle cx="512" cy="504" r="286" fill="none" stroke="#B97A54" stroke-width="9" opacity="0.85"/>
  <path fill="none" stroke="#9EB392" stroke-width="46" stroke-linecap="round" d="M369.00 256.32 A286 286 0 0 1 788.25 429.98"/>
  <g>
    <path fill="#262626" stroke="#E36E43" stroke-width="2" stroke-opacity="0.55" d="M512.00 412.00 L598.60 462.00 L707.52 498.33 A196.00 196.00 0 0 0 597.92 335.84 Z"/>
    <path fill="#1c1c1c" stroke="#E36E43" stroke-width="2" stroke-opacity="0.55" d="M598.60 462.00 L598.60 562.00 L621.60 674.49 A196.00 196.00 0 0 0 707.52 498.33 Z"/>
    <path fill="#262626" stroke="#E36E43" stroke-width="2" stroke-opacity="0.55" d="M598.60 562.00 L512.00 612.00 L426.08 688.16 A196.00 196.00 0 0 0 621.60 674.49 Z"/>
    <path fill="#1c1c1c" stroke="#E36E43" stroke-width="2" stroke-opacity="0.55" d="M512.00 612.00 L425.40 562.00 L316.48 525.67 A196.00 196.00 0 0 0 426.08 688.16 Z"/>
    <path fill="#262626" stroke="#E36E43" stroke-width="2" stroke-opacity="0.55" d="M425.40 562.00 L425.40 462.00 L402.40 349.51 A196.00 196.00 0 0 0 316.48 525.67 Z"/>
    <path fill="#1c1c1c" stroke="#E36E43" stroke-width="2" stroke-opacity="0.55" d="M425.40 462.00 L512.00 412.00 L597.92 335.84 A196.00 196.00 0 0 0 402.40 349.51 Z"/>
  </g>
  <path fill="none" stroke="#E36E43" stroke-width="3" stroke-opacity="0.9" d="M512.00 412.00 L598.60 462.00 L598.60 562.00 L512.00 612.00 L425.40 562.00 L425.40 462.00 Z"/>
  <circle cx="512" cy="512" r="150" fill="url(#coreGlow64)"/>
  <circle cx="512" cy="512" r="92" fill="url(#ember64)"/>
  <circle cx="512" cy="512" r="48" fill="#FFB15E" opacity="0.85"/>
</svg>
